<svg width="182" height="168" viewBox="0 0 182 168" fill="none" xmlns="http://www.w3.org/2000/svg">
<path fill-rule="evenodd" clip-rule="evenodd" d="M69.3581 19.2269L14.291 0.756322C7.44822 -1.53886 0.359679 3.51769 0.302571 10.7349L0.000335101 48.931C-0.0359944 53.5229 2.88475 57.6173 7.23834 59.0776L64.1385 78.163C70.9812 80.4582 78.0697 75.4016 78.1269 68.1844L78.2648 50.7462L76.5428 51.2846L72.7698 39.2161L72.541 68.1402C72.5139 71.5589 69.1562 73.9541 65.9149 72.8669L9.01475 53.7815C6.95252 53.0898 5.56901 51.1503 5.58623 48.9752L5.88846 10.7791C5.91552 7.36043 9.27325 4.96521 12.5145 6.05241L68.246 24.7458L66.7733 20.035L69.3581 19.2269Z" fill="white"/>
<path fill-rule="evenodd" clip-rule="evenodd" d="M139.996 69.3916L125.948 27.5067C124.644 23.6181 121.02 21 116.941 21H68.9998V31.6284H70.1414L91.3653 94.9083L69.0052 161.16C67.6257 165.248 63.7924 168 59.4783 168H20.2108C13.3319 168 8.48416 161.247 10.6839 154.73L54.6285 24.5233C56.0081 20.4357 59.8414 17.6837 64.1555 17.6837H112.572L167.541 0.491568C174.429 -1.66287 181.412 3.53793 181.321 10.7548L180.841 48.9491C180.783 53.5407 177.779 57.5744 173.396 58.9451L139.996 69.3916Z" fill="white"/>
<path fill-rule="evenodd" clip-rule="evenodd" d="M67.1994 28.8558L111.852 161.16C113.232 165.248 117.065 168 121.379 168H160.647C167.525 168 172.373 161.247 170.174 154.73L126.229 24.5233C124.849 20.4357 121.016 17.6837 116.702 17.6837H65.9918V28.8558H67.1994ZM72.2357 26.3096C71.6225 24.4929 69.9188 23.2698 68.0015 23.2698H116.702C118.619 23.2698 120.323 24.4929 120.936 26.3096L164.881 156.516C165.858 159.413 163.704 162.414 160.647 162.414H121.379C119.462 162.414 117.758 161.191 117.145 159.374L72.2357 26.3096Z" fill="white"/>
</svg>
