<svg width="1359" height="168" viewBox="0 0 1359 168" fill="none" xmlns="http://www.w3.org/2000/svg">
<path d="M1358.43 138.42C1355.12 140.078 1350.75 140.908 1345.34 140.908C1330.8 140.908 1323.53 133.933 1323.53 119.983V77.6204H1311.02V64.3045H1323.53V46.9645L1340.51 42.1357V64.3045H1358.43V77.6204H1340.51V115.081C1340.51 119.519 1341.31 122.69 1342.92 124.592C1344.53 126.494 1347.21 127.445 1350.97 127.445C1353.85 127.445 1356.34 126.616 1358.43 124.958V138.42Z" fill="white"/>
<path d="M1296.75 139.225H1279.71V28.3076H1296.75V139.225Z" fill="white"/>
<path d="M1263.54 106.374H1212.47C1212.66 113.3 1214.79 118.641 1218.83 122.397C1222.93 126.153 1228.54 128.031 1235.66 128.031C1243.66 128.031 1251 125.641 1257.69 120.861V134.542C1250.86 138.835 1241.83 140.981 1230.61 140.981C1219.59 140.981 1210.93 137.591 1204.64 130.811C1198.4 123.982 1195.28 114.398 1195.28 102.057C1195.28 90.3998 1198.71 80.9128 1205.59 73.5964C1212.52 66.2312 1221.1 62.5486 1231.35 62.5486C1241.59 62.5486 1249.52 65.8409 1255.12 72.4257C1260.73 79.0105 1263.54 88.1561 1263.54 99.8624V106.374ZM1247.15 94.3751C1247.1 88.278 1245.66 83.5467 1242.83 80.1812C1240 76.7668 1236.1 75.0597 1231.13 75.0597C1226.25 75.0597 1222.1 76.84 1218.69 80.4007C1215.32 83.9613 1213.25 88.6195 1212.47 94.3751H1247.15Z" fill="white"/>
<path d="M1111.43 139.225V34.3071H1144.72C1154.86 34.3071 1162.89 36.5264 1168.79 40.965C1174.74 45.4037 1177.72 51.1836 1177.72 58.305C1177.72 64.2557 1176.03 69.426 1172.67 73.8158C1169.3 78.2057 1164.64 81.3274 1158.69 83.1809V83.4735C1165.91 84.3027 1171.67 86.9854 1175.96 91.5216C1180.3 96.009 1182.47 101.862 1182.47 109.081C1182.47 118.056 1178.94 125.324 1171.86 130.884C1164.79 136.445 1155.86 139.225 1145.08 139.225H1111.43ZM1128.77 48.2815V78.1325H1140.04C1146.08 78.1325 1150.82 76.718 1154.23 73.889C1157.69 71.0112 1159.42 66.9628 1159.42 61.7437C1159.42 52.7689 1153.43 48.2815 1141.43 48.2815H1128.77ZM1128.77 92.1069V125.324H1143.62C1150.11 125.324 1155.11 123.836 1158.62 120.861C1162.18 117.836 1163.96 113.69 1163.96 108.423C1163.96 97.5455 1156.42 92.1069 1141.35 92.1069H1128.77Z" fill="white"/>
<path d="M1057.51 139.225H1036L1006.88 103.228H1006.59V139.225H989.538V28.3076H1006.59V98.6186H1006.88L1034.39 64.3045H1054.8L1023.85 100.448L1057.51 139.225Z" fill="white"/>
<path d="M972.636 135.786C966.637 139.249 959.54 140.981 951.345 140.981C940.224 140.981 931.249 137.518 924.421 130.591C917.592 123.616 914.178 114.593 914.178 103.521C914.178 91.1802 917.836 81.2786 925.152 73.8159C932.518 66.3043 942.346 62.5486 954.638 62.5486C961.466 62.5486 967.49 63.7436 972.709 66.1336V81.9371C967.49 78.035 961.93 76.084 956.028 76.084C948.858 76.084 942.98 78.5228 938.395 83.4004C933.81 88.2292 931.518 94.5702 931.518 102.423C931.518 110.179 933.664 116.3 937.956 120.787C942.297 125.275 948.102 127.519 955.369 127.519C961.466 127.519 967.222 125.348 972.636 121.007V135.786Z" fill="white"/>
<path d="M898.229 139.225H881.767V127.519H881.474C876.304 136.493 868.719 140.981 858.72 140.981C851.355 140.981 845.575 138.981 841.38 134.981C837.234 130.982 835.161 125.689 835.161 119.105C835.161 104.96 843.307 96.7163 859.598 94.3751L881.84 91.229C881.84 80.547 876.768 75.206 866.622 75.206C857.696 75.206 849.648 78.2789 842.478 84.4247V69.5723C850.38 64.8898 859.501 62.5486 869.841 62.5486C888.766 62.5486 898.229 71.8648 898.229 90.4973V139.225ZM881.84 102.423L866.11 104.618C861.232 105.252 857.55 106.447 855.062 108.203C852.623 109.91 851.404 112.934 851.404 117.275C851.404 120.446 852.526 123.055 854.769 125.104C857.062 127.104 860.11 128.104 863.915 128.104C869.085 128.104 873.353 126.299 876.719 122.69C880.133 119.031 881.84 114.446 881.84 108.935V102.423Z" fill="white"/>
<path d="M818.553 139.225H801.505V28.3076H818.553V139.225Z" fill="white"/>
<path d="M712.83 139.225V34.3071H746.119C756.265 34.3071 764.289 36.5264 770.191 40.965C776.141 45.4037 779.117 51.1836 779.117 58.305C779.117 64.2557 777.434 69.426 774.068 73.8158C770.703 78.2057 766.045 81.3274 760.094 83.1809V83.4735C767.313 84.3027 773.068 86.9854 777.361 91.5216C781.702 96.009 783.872 101.862 783.872 109.081C783.872 118.056 780.336 125.324 773.263 130.884C766.191 136.445 757.265 139.225 746.485 139.225H712.83ZM730.17 48.2815V78.1325H741.437C747.485 78.1325 752.217 76.718 755.631 73.889C759.094 71.0112 760.826 66.9628 760.826 61.7437C760.826 52.7689 754.826 48.2815 742.827 48.2815H730.17ZM730.17 92.1069V125.324H745.022C751.509 125.324 756.509 123.836 760.021 120.861C763.581 117.836 765.362 113.69 765.362 108.423C765.362 97.5455 757.826 92.1069 742.754 92.1069H730.17Z" fill="white"/>
<path d="M647.494 139.225H630.446V28.3076H647.494V139.225Z" fill="white"/>
<path d="M609.668 139.225H593.206V127.519H592.913C587.743 136.493 580.158 140.981 570.159 140.981C562.794 140.981 557.014 138.981 552.819 134.981C548.673 130.982 546.6 125.689 546.6 119.105C546.6 104.96 554.746 96.7163 571.037 94.3751L593.279 91.229C593.279 80.547 588.206 75.206 578.061 75.206C569.135 75.206 561.087 78.2789 553.917 84.4247V69.5723C561.819 64.8898 570.94 62.5486 581.28 62.5486C600.205 62.5486 609.668 71.8648 609.668 90.4973V139.225ZM593.279 102.423L577.549 104.618C572.671 105.252 568.989 106.447 566.501 108.203C564.062 109.91 562.843 112.934 562.843 117.275C562.843 120.446 563.965 123.055 566.208 125.104C568.501 127.104 571.549 128.104 575.354 128.104C580.524 128.104 584.792 126.299 588.158 122.69C591.572 119.031 593.279 114.446 593.279 108.935V102.423Z" fill="white"/>
<path d="M480.899 128.396H480.606V139.225H463.632V28.3076H480.606V77.4741H480.899C486.703 67.5237 495.19 62.5485 506.36 62.5485C515.823 62.5485 523.212 65.9141 528.529 72.6452C533.894 79.3276 536.577 88.3024 536.577 99.5697C536.577 112.105 533.577 122.153 527.578 129.713C521.578 137.225 513.384 140.981 502.995 140.981C493.239 140.981 485.874 136.786 480.899 128.396ZM480.46 98.6186V107.91C480.46 113.373 482.192 118.007 485.655 121.812C489.167 125.616 493.605 127.519 498.971 127.519C505.263 127.519 510.189 125.08 513.75 120.202C517.359 115.276 519.164 108.423 519.164 99.6429C519.164 92.2777 517.481 86.5221 514.116 82.3761C510.799 78.1813 506.287 76.084 500.58 76.084C494.532 76.084 489.654 78.2301 485.947 82.5224C482.289 86.8147 480.46 92.1801 480.46 98.6186Z" fill="white"/>
<path d="M407.295 140.981C395.735 140.981 386.492 137.493 379.566 130.518C372.688 123.494 369.25 114.203 369.25 102.643C369.25 90.0584 372.835 80.2299 380.005 73.1574C387.224 66.0848 396.93 62.5486 409.124 62.5486C420.831 62.5486 429.952 65.9873 436.488 72.8647C443.024 79.7422 446.292 89.2779 446.292 101.472C446.292 113.422 442.756 123.007 435.683 130.226C428.659 137.396 419.197 140.981 407.295 140.981ZM408.1 76.084C401.466 76.084 396.223 78.4008 392.37 83.0346C388.516 87.6683 386.59 94.058 386.59 102.204C386.59 110.057 388.541 116.251 392.443 120.787C396.345 125.275 401.564 127.519 408.1 127.519C414.782 127.519 419.904 125.299 423.465 120.861C427.074 116.422 428.879 110.105 428.879 101.911C428.879 93.6678 427.074 87.3025 423.465 82.8151C419.904 78.3277 414.782 76.084 408.1 76.084Z" fill="white"/>
<path d="M351.91 139.225H334.862V28.3076H351.91V139.225Z" fill="white"/>
<path d="M314.157 132.055C303.231 138.005 291.062 140.981 277.648 140.981C262.137 140.981 249.577 136.152 239.969 126.494C230.36 116.836 225.555 104.057 225.555 88.156C225.555 71.9136 230.799 58.5976 241.286 48.2083C251.821 37.7702 265.186 32.5511 281.38 32.5511C293.037 32.5511 302.841 34.2583 310.792 37.6726V55.5979C302.744 50.2325 293.159 47.5498 282.038 47.5498C270.868 47.5498 261.698 51.2324 254.528 58.5976C247.407 65.9628 243.846 75.4986 243.846 87.2049C243.846 99.2526 246.919 108.74 253.065 115.666C259.211 122.543 267.552 125.982 278.087 125.982C285.306 125.982 291.549 124.592 296.817 121.812V96.8626H274.722V82.2297H314.157V132.055Z" fill="white"/>
<path fill-rule="evenodd" clip-rule="evenodd" d="M69.3581 19.2269L14.291 0.756322C7.44822 -1.53886 0.359679 3.51769 0.302571 10.7349L0.000335101 48.931C-0.0359944 53.5229 2.88475 57.6173 7.23834 59.0776L64.1385 78.163C70.9812 80.4582 78.0697 75.4016 78.1269 68.1844L78.2648 50.7462L76.5428 51.2846L72.7698 39.2161L72.541 68.1402C72.5139 71.5589 69.1562 73.9541 65.9149 72.8669L9.01475 53.7815C6.95252 53.0898 5.56901 51.1503 5.58623 48.9752L5.88846 10.7791C5.91552 7.36043 9.27325 4.96521 12.5145 6.05241L68.246 24.7458L66.7733 20.035L69.3581 19.2269Z" fill="white"/>
<path fill-rule="evenodd" clip-rule="evenodd" d="M139.996 69.3916L125.948 27.5067C124.644 23.6181 121.02 21 116.941 21H68.9998V31.6284H70.1414L91.3653 94.9083L69.0052 161.16C67.6257 165.248 63.7924 168 59.4783 168H20.2108C13.3319 168 8.48416 161.247 10.6839 154.73L54.6285 24.5233C56.0081 20.4357 59.8414 17.6837 64.1555 17.6837H112.572L167.541 0.491568C174.429 -1.66287 181.412 3.53793 181.321 10.7548L180.841 48.9491C180.783 53.5407 177.779 57.5744 173.396 58.9451L139.996 69.3916Z" fill="white"/>
<path fill-rule="evenodd" clip-rule="evenodd" d="M67.1994 28.8558L111.852 161.16C113.232 165.248 117.065 168 121.379 168H160.647C167.525 168 172.373 161.247 170.174 154.73L126.229 24.5233C124.849 20.4357 121.016 17.6837 116.702 17.6837H65.9918V28.8558H67.1994ZM72.2357 26.3096C71.6225 24.4929 69.9188 23.2698 68.0015 23.2698H116.702C118.619 23.2698 120.323 24.4929 120.936 26.3096L164.881 156.516C165.858 159.413 163.704 162.414 160.647 162.414H121.379C119.462 162.414 117.758 161.191 117.145 159.374L72.2357 26.3096Z" fill="white"/>
</svg>
